<svg width="32" height="32" viewBox="0 0 32 32" fill="none" xmlns="http://www.w3.org/2000/svg">
<g id="cart">
<g id="cart_2">
<path id="Path_33955" fill-rule="evenodd" clip-rule="evenodd" d="M22.0182 28.6667H10.8877C6.79924 28.6667 3.66271 27.19 4.55363 21.2464L5.59101 13.1915C6.1402 10.2258 8.03189 9.09082 9.69169 9.09082H23.263C24.9472 9.09082 26.7291 10.3113 27.3637 13.1915L28.4011 21.2464C29.1577 26.5187 26.1066 28.6667 22.0182 28.6667Z" stroke="#383838" stroke-width="1.5" stroke-linecap="round" stroke-linejoin="round"/>
<path id="Path_33956" d="M22.2016 8.79765C22.2016 5.61622 19.6226 3.03716 16.4411 3.03716V3.03716C14.9091 3.03067 13.4377 3.63471 12.3521 4.71571C11.2665 5.79672 10.6562 7.26563 10.6563 8.79765H10.6562" stroke="#383838" stroke-width="1.5" stroke-linecap="round" stroke-linejoin="round"/>
<path id="Line_192" d="M20.3946 14.8026H20.3336" stroke="#383838" stroke-width="1.5" stroke-linecap="round" stroke-linejoin="round"/>
<path id="Line_193" d="M12.6212 14.8026H12.5602" stroke="#383838" stroke-width="1.5" stroke-linecap="round" stroke-linejoin="round"/>
</g>
</g>
</svg>
